<?xml version="1.0" encoding="utf-8"?>
<!-- Generator: Adobe Illustrator 26.1.0, SVG Export Plug-In . SVG Version: 6.00 Build 0)  -->
<svg version="1.1" id="Layer_1" xmlns="http://www.w3.org/2000/svg" xmlns:xlink="http://www.w3.org/1999/xlink" x="0px" y="0px"
	 viewBox="0 0 500 500" style="enable-background:new 0 0 500 500;" xml:space="preserve">
<style type="text/css">
	.st0{fill:#2056DF;}
	.st1{fill:#FFFFFF;}
</style>
<path class="st0" d="M407,492H93C46,492,8,454,8,407V93C8,46,46,8,93,8h314c47,0,85,38.1,85,85v314C492,454,454,492,407,492z"/>
<g>
	<g>
		<path class="st1" d="M250.2,244.3c16.5,0.3,27.4-8.3,36.2-21.3c16.4-24.2,48.3-28.3,70.7-9.5c16.7,14,21.3,37.8,10.6,59.2
			c-7.7,15.4-7.4,29.9,2.7,43.9c7.8,10.8,18.6,15.9,31.9,17c24.9,2.1,42.3,17.2,46.3,39.5c3.6,20.3-5.7,40.7-23.1,50.4
			c-17.9,10-39.4,7.9-54.3-5.3c-16.4-14.5-21.9-35.7-13.4-55.1c4.5-10.4,8.2-20.6,5.9-32.1c-4.3-21.6-20.5-35-40.9-33.6
			c-18.8,1.3-34.9,18.4-34.9,39.1c0,8.8,3,17.9,6.3,26.3c10.4,26.6-2.5,55.8-29.5,64.9c-20.6,6.9-42.7-0.8-55.4-21.1
			c-14.4-23-45-24.9-62.7-8c-3.8,3.6-6.6,8.1-9.8,12.3c-14.7,19.3-40.5,24.6-62,12.8c-20-11.1-29.1-36.2-21.1-58.4
			c8-22.1,31.7-35.2,54.9-30.2c14.4,3.1,24.4,12.1,32.4,24.2c13.8,20.7,40.9,24.1,59.5,7.8c10.5-9.3,17.2-20.9,13.1-35.5
			c-4.6-16.3-15-27.6-31.8-32.1c-3.7-1-7.6-1.5-11.5-1.9c-25.3-2.4-43.9-22.9-43.7-48.2c0.2-25.2,19.4-45.5,44.6-47.4
			c34.4-2.6,50.7-30.4,36.3-62.3c-9.3-20.8-5.4-42.6,10.3-57.4c14.3-13.4,36.4-16.3,54.2-7c18.1,9.5,28.1,28.8,25.4,49.3
			c-2.7,19.9-17.4,35.8-37.2,40.1c-7.6,1.6-15.5,2.2-22.8,4.6c-16.3,5.5-27.7,22.9-26.7,39.3c1,16.9,12.4,30.7,28.9,34.5
			C243,243.9,246.6,243.9,250.2,244.3z M210,292.6c-0.1,22.7,17.4,41,39.3,41.1c22.7,0.1,40.7-17.8,40.8-40.6
			c0.1-22.1-18-40.2-40.3-40.2C228.1,252.9,210.2,270.8,210,292.6z"/>
	</g>
</g>
</svg>
