<?xml version="1.0" encoding="utf-8"?>
<!-- Generator: Adobe Illustrator 26.1.0, SVG Export Plug-In . SVG Version: 6.00 Build 0)  -->
<svg version="1.1" id="Layer_1" xmlns="http://www.w3.org/2000/svg" xmlns:xlink="http://www.w3.org/1999/xlink" x="0px" y="0px"
	 viewBox="0 0 500 500" style="enable-background:new 0 0 500 500;" xml:space="preserve">
<style type="text/css">
	.st0{fill:#2056DF;}
	.st1{fill:#FFFFFF;}
</style>
<g>
	<path class="st0" d="M407,492H93C46,492,8,454,8,407V93C8,46,46,8,93,8h314c47,0,85,38.1,85,85v314C492,454,454,492,407,492z"/>
	<g>
		<path class="st1" d="M214.4,194.5c-5.1,0-10.2,0-15.3,0c-26.9,0-53.7,0.1-80.6-0.2c-17.7-0.2-23.3-5.9-23.4-23.3
			c-0.1-17.4-0.2-34.9,0.1-52.3c0.3-16.1,6.5-22.4,22.4-22.4c88.3-0.2,176.5-0.2,264.8,0c15.4,0,22.2,7,22.4,22.6
			c0.3,17.8,0.7,35.6-0.3,53.4c-0.4,6.3-3.2,14-7.6,18.4c-58.7,59.2-117.9,117.8-177,176.6c-9.1,9.1-17.7,19-27.7,27
			c-5.8,4.7-13.8,8.6-21.1,9c-19.1,1.1-38.3,0.2-57.5-0.3c-12.5-0.3-18-5.5-18.3-18c-0.5-19.9-1-39.8,0.3-59.6
			c0.4-6.3,5.5-13.3,10.4-18.2c34.5-35.1,69.5-69.6,104.3-104.4c1.7-1.7,3.2-3.6,4.8-5.4C214.8,196.4,214.6,195.5,214.4,194.5z"/>
		<path class="st1" d="M306.1,355.4c0-9.7-0.3-19.5,0.1-29.2c0.4-12.6,7.7-20.2,20.4-20.5c19.1-0.5,38.3-0.5,57.4,0
			c13.4,0.3,20.6,7.8,20.8,21.1c0.3,19.1,0.3,38.3-0.1,57.4c-0.2,12.4-6.1,18.9-18.6,19.2c-20.9,0.5-41.8,0.3-62.6-0.4
			c-11.1-0.3-16.9-7-17.3-18.2C305.8,375,306.1,365.2,306.1,355.4z"/>
	</g>
</g>
</svg>
