<svg version="1.1" xmlns="http://www.w3.org/2000/svg" width="512" height="512" viewBox="0 0 512 512">
  <!-- Black silhouette version for Safari pinned tabs -->
  <path fill="black" d="M256,248.6c16.9,0.3,28-8.5,37-21.8c16.8-24.7,49.4-28.9,72.3-9.7c17.1,14.3,21.8,38.6,10.8,60.5
    c-7.9,15.7-7.6,30.5,2.8,44.9c8,11,19,16.2,32.6,17.4c25.4,2.1,43.2,17.6,47.3,40.4c3.7,20.7-5.8,41.6-23.6,51.5
    c-18.3,10.2-40.3,8.1-55.5-5.4c-16.8-14.8-22.4-36.5-13.7-56.3c4.6-10.6,8.4-21,6-32.8c-4.4-22.1-21-35.8-41.8-34.4
    c-19.2,1.3-35.7,18.8-35.7,40c0,9,3.1,18.3,6.4,26.9c10.6,27.2-2.6,57-30.1,66.3c-21,7-43.7-0.8-56.6-21.6
    c-14.7-23.5-46-25.4-64.1-8.2c-3.9,3.7-6.8,8.3-10,12.6c-15,19.7-41.4,25.1-63.4,13.1c-20.4-11.3-29.7-37-21.6-59.7
    c8.2-22.6,32.4-36,56.1-30.9c14.7,3.2,24.9,12.4,33.1,24.7c14.1,21.2,41.8,24.6,60.8,8c10.7-9.5,17.6-21.4,13.4-36.3
    c-4.7-16.7-15.3-28.2-32.5-32.8c-3.8-1-7.8-1.5-11.8-1.9c-25.9-2.5-44.9-23.4-44.7-49.3c0.2-25.7,19.8-46.5,45.6-48.4
    c35.1-2.7,51.8-31.1,37.1-63.7c-9.5-21.3-5.5-43.6,10.5-58.7c14.6-13.7,37.2-16.7,55.4-7.2c18.5,9.7,28.7,29.4,26,50.4
    c-2.8,20.3-17.8,36.6-38,41c-7.8,1.6-15.8,2.3-23.3,4.7c-16.7,5.6-28.3,23.4-27.3,40.2c1,17.3,12.7,31.4,29.5,35.2
    C248.1,247.8,252,247.8,256,248.6z M214.3,299.5c-0.1,23.2,17.8,41.9,40.2,42c23.2,0.1,41.6-18.2,41.7-41.5
    c0.1-22.6-18.4-41.1-41.2-41.1C231.9,258.9,214.4,276.3,214.3,299.5z"/>
</svg> 